<?xml version="1.0" encoding="utf-8"?>
<svg version="1.1" xmlns:xlink="http://www.w3.org/1999/xlink" width="23px" height="24px" xmlns="http://www.w3.org/2000/svg">
  <g transform="matrix(1 0 0 1 -156 -707 )">
    <path d="M 10.0881696428571 17.7482142857143  C 9.703125 18.1607142857143  9.03571428571428 17.8714285714286  9 17.2982142857143  L 9 6.70178571428571  C 9.03571428571428 6.12857142857143  9.703125 5.83928571428571  10.0881696428571 6.24642857142857  L 15.1348214285714 11.5446428571429  C 15.3761160714286 11.7964285714286  15.3761160714286 12.1982142857143  15.1348214285714 12.45  L 10.0881696428571 17.7482142857143  Z M 20.5357142857143 0  C 21.8962053571429 0  23 1.15178571428571  23 2.57142857142857  L 23 21.4285714285714  C 23 22.8482142857143  21.8962053571429 24  20.5357142857143 24  L 2.46428571428571 24  C 1.10379464285714 24  0 22.8482142857143  0 21.4285714285714  L 0 2.57142857142857  C 0 1.15178571428571  1.10379464285714 0  2.46428571428571 0  L 20.5357142857143 0  Z M 20.2276785714286 21  C 20.3970982142857 21.4285714285714  20.5357142857143 21.2839285714286  20.5357142857143 21.1071428571429  L 20.5357142857143 2.89285714285714  C 20.5357142857143 2.71607142857143  20.3970982142857 2.57142857142857  20.2276785714286 3  L 2.77232142857143 3  C 2.60290178571429 2.57142857142857  2.46428571428571 2.71607142857143  2.46428571428571 2.89285714285714  L 2.46428571428571 21.1071428571429  C 2.46428571428571 21.2839285714286  2.60290178571429 21.4285714285714  2.77232142857143 21  L 20.2276785714286 21  Z " fill-rule="nonzero" fill="#000000" stroke="none" transform="matrix(1 0 0 1 156 707 )" />
  </g>
</svg>