<?xml version="1.0" encoding="utf-8"?>
<svg version="1.1" xmlns:xlink="http://www.w3.org/1999/xlink" width="957px" height="410px" xmlns="http://www.w3.org/2000/svg">
  <g transform="matrix(1 0 0 1 0 -3 )">
    <path d="M 0.5 406.712562549302  C 0.5 406.712562549302  0.5 3.5  0.5 3.5  C 0.5 3.5  956.5 3.5  956.5 3.5  C 956.5 3.5  956.5 406.712562549302  956.5 406.712562549302  C 956.5 406.712562549302  795.686276522027 406.712562549302  795.686276522027 406.712562549302  C 795.686276522027 406.712562549302  775.9538976031 411.598045329037  775.9538976031 411.598045329037  C 775.9538976031 411.598045329037  750.740302317773 406.712562549302  750.740302317773 406.712562549302  C 750.740302317773 406.712562549302  0.5 406.712562549302  0.5 406.712562549302  Z " fill-rule="nonzero" fill="#ffffff" stroke="none" />
    <path d="M 0 407.212562549302  C 0 407.212562549302  0 3  0 3  C 0 3  957 3  957 3  C 957 3  957 407.212562549302  957 407.212562549302  C 957 407.212562549302  795.747252747253 407.212562549301  795.747252747253 407.212562549301  C 795.747252747253 407.212562549301  775.967032967033 412.10989010989  775.967032967033 412.10989010989  C 775.967032967033 412.10989010989  750.692307692308 407.212562549301  750.692307692308 407.212562549301  C 750.692307692308 407.212562549301  0 407.212562549302  0 407.212562549302  Z M 1 406.212562549302  C 1 406.212562549302  750.788296943304 406.212562549302  750.788296943304 406.212562549302  C 750.788296943304 406.212562549302  775.940762239167 411.086200548183  775.940762239167 411.086200548183  C 775.940762239167 411.086200548183  795.625300296801 406.212562549302  795.625300296801 406.212562549302  C 795.625300296801 406.212562549302  956 406.212562549302  956 406.212562549302  C 956 406.212562549302  956 4  956 4  C 956 4  1 4  1 4  C 1 4  1 406.212562549302  1 406.212562549302  Z " fill-rule="nonzero" fill="#e4e4e4" stroke="none" />
  </g>
</svg>