<?xml version="1.0" encoding="utf-8"?>
<svg version="1.1" xmlns:xlink="http://www.w3.org/1999/xlink" width="246px" height="46px" xmlns="http://www.w3.org/2000/svg">
  <defs>
    <filter x="95px" y="23px" width="246px" height="46px" filterUnits="userSpaceOnUse" id="filter99">
      <feOffset dx="0" dy="0" in="SourceAlpha" result="shadowOffsetInner" />
      <feGaussianBlur stdDeviation="1.5" in="shadowOffsetInner" result="shadowGaussian" />
      <feComposite in2="shadowGaussian" operator="atop" in="SourceAlpha" result="shadowComposite" />
      <feColorMatrix type="matrix" values="0 0 0 0 0  0 0 0 0 0.474509803921569  0 0 0 0 0.996078431372549  0 0 0 0.8 0  " in="shadowComposite" />
    </filter>
    <g id="widget100">
      <path d="M 98.5 29  A 2.5 2.5 0 0 1 101 26.5 L 335 26.5  A 2.5 2.5 0 0 1 337.5 29 L 337.5 63  A 2.5 2.5 0 0 1 335 65.5 L 101 65.5  A 2.5 2.5 0 0 1 98.5 63 L 98.5 29  Z " fill-rule="nonzero" fill="#ffffff" stroke="none" />
      <path d="M 98.5 29  A 2.5 2.5 0 0 1 101 26.5 L 335 26.5  A 2.5 2.5 0 0 1 337.5 29 L 337.5 63  A 2.5 2.5 0 0 1 335 65.5 L 101 65.5  A 2.5 2.5 0 0 1 98.5 63 L 98.5 29  Z " stroke-width="1" stroke="#0079fe" fill="none" />
    </g>
  </defs>
  <g transform="matrix(1 0 0 1 -95 -23 )">
    <use xlink:href="#widget100" filter="url(#filter99)" />
    <use xlink:href="#widget100" />
  </g>
</svg>