<?xml version="1.0" encoding="utf-8"?>
<svg version="1.1" xmlns:xlink="http://www.w3.org/1999/xlink" width="36px" height="36px" xmlns="http://www.w3.org/2000/svg">
  <g transform="matrix(1 0 0 1 -93 -57 )">
    <path d="M 35.0951086956522 15.9204107830552  C 35.6983695652174 16.4595635430038  36 17.1527599486521  36 18  C 36 18.8318356867779  35.6983695652174 19.5327342747112  35.0951086956522 20.1026957637997  L 19.1739130434783 35.1450577663671  C 18.5380434782609 35.7150192554557  17.7961956521739 36  16.9483695652174 36  C 16.116847826087 36  15.383152173913 35.7150192554557  14.7472826086957 35.1450577663671  L 12.9130434782609 33.4120667522465  C 12.2934782608696 32.8267008985879  11.9836956521739 32.1258023106547  11.9836956521739 31.3093709884467  C 11.9836956521739 30.4929396662388  12.2934782608696 29.7920410783055  12.9130434782609 29.206675224647  L 20.0788043478261 22  L 2.86141304347826 22  C 2.01358695652174 22.4364569961489  1.32472826086957 22.1476251604621  0.794836956521739 21.5699614890886  C 0.264945652173913 20.992297817715  0 20.2952503209243  0 19.4788189987163  L 0 16.5211810012837  C 0 15.7047496790757  0.264945652173913 15.007702182285  0.794836956521739 14.4300385109114  C 1.32472826086957 13.8523748395379  2.01358695652174 13.5635430038511  2.86141304347826 14  L 20.0788043478261 14  L 12.9130434782609 6.77021822849808  C 12.2934782608696 6.21566110397946  11.9836956521739 5.5224646983312  11.9836956521739 4.69062901155327  C 11.9836956521739 3.85879332477536  12.2934782608696 3.16559691912709  12.9130434782609 2.61103979460847  L 14.7472826086957 0.878048780487806  C 15.366847826087 0.292682926829266  16.1005434782609 0  16.9483695652174 0  C 17.8125 0  18.554347826087 0.292682926829266  19.1739130434783 0.878048780487806  L 35.0951086956522 15.9204107830552  Z " fill-rule="nonzero" fill="#ffffff" stroke="none" transform="matrix(1 0 0 1 93 57 )" />
  </g>
</svg>