<?xml version="1.0" encoding="utf-8"?>
<svg version="1.1" xmlns:xlink="http://www.w3.org/1999/xlink" width="24px" height="24px" xmlns="http://www.w3.org/2000/svg">
  <g transform="matrix(1 0 0 1 -181 -2104 )">
    <path d="M 10.5267857142857 17.7482142857143  C 10.125 18.1607142857143  9.42857142857143 17.8714285714286  9.42857142857143 17.2982142857143  L 9.42857142857143 6.70178571428571  C 9.42857142857143 6.12857142857143  10.125 5.83928571428571  10.5267857142857 6.24642857142857  L 15.7928571428571 11.5446428571429  C 16.0446428571429 11.7964285714286  16.0446428571429 12.1982142857143  15.7928571428571 12.45  L 10.5267857142857 17.7482142857143  Z M 21.4285714285714 0  C 22.8482142857143 0  24 1.15178571428571  24 2.57142857142857  L 24 21.4285714285714  C 24 22.8482142857143  22.8482142857143 24  21.4285714285714 24  L 2.57142857142857 24  C 1.15178571428571 24  0 22.8482142857143  0 21.4285714285714  L 0 2.57142857142857  C 0 1.15178571428571  1.15178571428571 0  2.57142857142857 0  L 21.4285714285714 0  Z M 21.1071428571429 21  C 21.2839285714286 21.4285714285714  21.4285714285714 21.2839285714286  21 21.1071428571429  L 21 2.89285714285714  C 21.4285714285714 2.71607142857143  21.2839285714286 2.57142857142857  21.1071428571429 3  L 2.89285714285714 3  C 2.71607142857143 2.57142857142857  2.57142857142857 2.71607142857143  3 2.89285714285714  L 3 21.1071428571429  C 2.57142857142857 21.2839285714286  2.71607142857143 21.4285714285714  2.89285714285714 21  L 21.1071428571429 21  Z " fill-rule="nonzero" fill="#000000" stroke="none" transform="matrix(1 0 0 1 181 2104 )" />
  </g>
</svg>