<?xml version="1.0" encoding="utf-8"?>
<svg version="1.1" xmlns:xlink="http://www.w3.org/1999/xlink" width="151px" height="42px" xmlns="http://www.w3.org/2000/svg">
  <defs>
    <filter x="40px" y="145px" width="151px" height="42px" filterUnits="userSpaceOnUse" id="filter105">
      <feOffset dx="0" dy="0" in="SourceAlpha" result="shadowOffsetInner" />
      <feGaussianBlur stdDeviation="1.5" in="shadowOffsetInner" result="shadowGaussian" />
      <feComposite in2="shadowGaussian" operator="atop" in="SourceAlpha" result="shadowComposite" />
      <feColorMatrix type="matrix" values="0 0 0 0 0  0 0 0 0 0.474509803921569  0 0 0 0 0.996078431372549  0 0 0 0.8 0  " in="shadowComposite" />
    </filter>
    <g id="widget106">
      <path d="M 43.5 151  A 2.5 2.5 0 0 1 46 148.5 L 185 148.5  A 2.5 2.5 0 0 1 187.5 151 L 187.5 181  A 2.5 2.5 0 0 1 185 183.5 L 46 183.5  A 2.5 2.5 0 0 1 43.5 181 L 43.5 151  Z " fill-rule="nonzero" fill="#ffffff" stroke="none" />
      <path d="M 43.5 151  A 2.5 2.5 0 0 1 46 148.5 L 185 148.5  A 2.5 2.5 0 0 1 187.5 151 L 187.5 181  A 2.5 2.5 0 0 1 185 183.5 L 46 183.5  A 2.5 2.5 0 0 1 43.5 181 L 43.5 151  Z " stroke-width="1" stroke="#0079fe" fill="none" />
    </g>
  </defs>
  <g transform="matrix(1 0 0 1 -40 -145 )">
    <use xlink:href="#widget106" filter="url(#filter105)" />
    <use xlink:href="#widget106" />
  </g>
</svg>