<?xml version="1.0" encoding="utf-8"?>
<svg version="1.1" xmlns:xlink="http://www.w3.org/1999/xlink" width="225px" height="42px" xmlns="http://www.w3.org/2000/svg">
  <defs>
    <filter x="40px" y="35px" width="225px" height="42px" filterUnits="userSpaceOnUse" id="filter103">
      <feOffset dx="0" dy="0" in="SourceAlpha" result="shadowOffsetInner" />
      <feGaussianBlur stdDeviation="1.5" in="shadowOffsetInner" result="shadowGaussian" />
      <feComposite in2="shadowGaussian" operator="atop" in="SourceAlpha" result="shadowComposite" />
      <feColorMatrix type="matrix" values="0 0 0 0 0  0 0 0 0 0.474509803921569  0 0 0 0 0.996078431372549  0 0 0 0.8 0  " in="shadowComposite" />
    </filter>
    <g id="widget104">
      <path d="M 43.5 41  A 2.5 2.5 0 0 1 46 38.5 L 259 38.5  A 2.5 2.5 0 0 1 261.5 41 L 261.5 71  A 2.5 2.5 0 0 1 259 73.5 L 46 73.5  A 2.5 2.5 0 0 1 43.5 71 L 43.5 41  Z " fill-rule="nonzero" fill="#ffffff" stroke="none" />
      <path d="M 43.5 41  A 2.5 2.5 0 0 1 46 38.5 L 259 38.5  A 2.5 2.5 0 0 1 261.5 41 L 261.5 71  A 2.5 2.5 0 0 1 259 73.5 L 46 73.5  A 2.5 2.5 0 0 1 43.5 71 L 43.5 41  Z " stroke-width="1" stroke="#0079fe" fill="none" />
    </g>
  </defs>
  <g transform="matrix(1 0 0 1 -40 -35 )">
    <use xlink:href="#widget104" filter="url(#filter103)" />
    <use xlink:href="#widget104" />
  </g>
</svg>