<?xml version="1.0" encoding="utf-8"?>
<svg version="1.1" xmlns:xlink="http://www.w3.org/1999/xlink" width="145px" height="36px" xmlns="http://www.w3.org/2000/svg">
  <g transform="matrix(1 0 0 1 -43 -148 )">
    <path d="M 44 151  A 2 2 0 0 1 46 149 L 185 149  A 2 2 0 0 1 187 151 L 187 181  A 2 2 0 0 1 185 183 L 46 183  A 2 2 0 0 1 44 181 L 44 151  Z " fill-rule="nonzero" fill="#ffffff" stroke="none" />
    <path d="M 43.5 151  A 2.5 2.5 0 0 1 46 148.5 L 185 148.5  A 2.5 2.5 0 0 1 187.5 151 L 187.5 181  A 2.5 2.5 0 0 1 185 183.5 L 46 183.5  A 2.5 2.5 0 0 1 43.5 181 L 43.5 151  Z " stroke-width="1" stroke="#cccccc" fill="none" stroke-opacity="0.698039215686274" />
  </g>
</svg>