<?xml version="1.0" encoding="utf-8"?>
<svg version="1.1" xmlns:xlink="http://www.w3.org/1999/xlink" width="16px" height="13px" xmlns="http://www.w3.org/2000/svg">
  <g transform="matrix(1 0 0 1 -123 -373 )">
    <path d="M 16 0.604793233082708  C 16 0.280404135338347  15.7446428571429 0.0183270676691736  15.4285714285714 0.0183270676691736  L 11.3428571428571 0.0183270676691736  C 10.4660714285714 0.0183270676691736  9.60892857142857 0.276738721804512  8.87142857142857 0.764238721804511  L 8 1.33787593984962  L 7.12857142857143 0.764238721804511  C 6.39285714285714 0.276738721804512  5.53392857142857 0.0183270676691736  4.65714285714286 0.0183270676691736  L 0.571428571428572 0.0183270676691736  C 0.255357142857143 0.0183270676691736  0 0.280404135338347  0 0.604793233082708  L 0 11.0145676691729  C 0 11.3389567669173  0.255357142857143 11.6010338345865  0.571428571428572 11.6010338345865  L 4.65714285714286 11.6010338345865  C 5.53392857142857 11.6010338345865  6.39107142857143 11.8594454887218  7.12857142857143 12.3469454887218  L 7.92142857142857 12.8710996240602  C 7.94464285714286 12.8857612781955  7.97142857142857 12.8949248120301  7.99821428571429 12.8949248120301  C 8.025 12.8949248120301  8.05178571428572 12.8875939849624  8.075 12.8710996240602  L 8.86785714285714 12.3469454887218  C 9.60714285714286 11.8594454887218  10.4660714285714 11.6010338345865  11.3428571428571 11.6010338345865  L 15.4285714285714 11.6010338345865  C 15.7446428571429 11.6010338345865  16 11.3389567669173  16 11.0145676691729  L 16 0.604793233082708  Z M 7.42857142857143 10.9962406015038  C 6.57857142857143 10.5270676691729  5.62857142857143 10.281484962406  4.65714285714286 10.281484962406  L 1.28571428571429 10.281484962406  L 1.28571428571429 1.33787593984962  L 4.65714285714286 1.33787593984962  C 5.28928571428571 1.33787593984962  5.90357142857143 1.52297932330827  6.43392857142857 1.87302631578947  L 7.30535714285714 2.44666353383459  L 7.42857142857143 2.52913533834587  L 7.42857142857143 10.9962406015038  Z M 14.7142857142857 1.33787593984962  L 14.7142857142857 10.281484962406  L 11.3428571428571 10.281484962406  C 10.3714285714286 10.281484962406  9.42142857142857 10.5270676691729  8.57142857142857 10.9962406015038  L 8.57142857142857 2.52913533834587  L 8.69464285714286 2.44666353383459  L 9.56607142857143 1.87302631578947  C 10.0964285714286 1.52297932330827  10.7107142857143 1.33787593984962  11.3428571428571 1.33787593984962  L 14.7142857142857 1.33787593984962  Z M 6.06964285714286 3.82119360902256  C 6.07142857142857 3.74605263157895  6.01428571428572 3.68374060150376  5.94464285714286 3.68374060150376  L 2.62678571428571 3.68374060150376  C 2.55714285714286 3.68374060150376  2.5 3.74605263157895  2.5 3.82119360902256  L 2.5 4.64591165413534  C 2.5 4.72105263157895  2.55714285714286 4.78336466165414  2.62678571428571 4.78336466165414  L 5.94285714285714 4.78336466165414  C 6.0125 4.78336466165414  6.06964285714286 4.72105263157895  6.06964285714286 4.64591165413534  L 6.06964285714286 3.82119360902256  Z M 10.0553571428571 3.68374060150376  C 9.98571428571429 3.68374060150376  9.92857142857143 3.74605263157895  9.92857142857143 3.82119360902256  L 9.92857142857143 4.64591165413534  C 9.92857142857143 4.72105263157895  9.98571428571429 4.78336466165414  10.0553571428571 4.78336466165414  L 13.3714285714286 4.78336466165414  C 13.4410714285714 4.78336466165414  13.4982142857143 4.72105263157895  13.4982142857143 4.64591165413534  L 13.4982142857143 3.82119360902256  C 13.4982142857143 3.74605263157895  13.4410714285714 3.68374060150376  13.3714285714286 3.68374060150376  L 10.0553571428571 3.68374060150376  Z M 6.06964285714286 6.38698308270677  C 6.07142857142857 6.31184210526316  6.01428571428572 6.24953007518797  5.94464285714286 6.24953007518797  L 2.62678571428571 6.24953007518797  C 2.55714285714286 6.24953007518797  2.5 6.31184210526316  2.5 6.38698308270677  L 2.5 7.21170112781955  C 2.5 7.28684210526316  2.55714285714286 7.34915413533835  2.62678571428571 7.34915413533835  L 5.94285714285714 7.34915413533835  C 6.0125 7.34915413533835  6.06964285714286 7.28684210526316  6.06964285714286 7.21170112781955  L 6.06964285714286 6.38698308270677  Z M 13.4982142857143 6.38698308270677  C 13.5 6.31184210526316  13.4428571428571 6.24953007518797  13.3732142857143 6.24953007518797  L 10.0553571428571 6.24953007518797  C 9.98571428571429 6.24953007518797  9.92857142857143 6.31184210526316  9.92857142857143 6.38698308270677  L 9.92857142857143 7.21170112781955  C 9.92857142857143 7.28684210526316  9.98571428571429 7.34915413533835  10.0553571428571 7.34915413533835  L 13.3714285714286 7.34915413533835  C 13.4410714285714 7.34915413533835  13.4982142857143 7.28684210526316  13.4982142857143 7.21170112781955  L 13.4982142857143 6.38698308270677  Z " fill-rule="nonzero" fill="#666666" stroke="none" transform="matrix(1 0 0 1 123 373 )" />
  </g>
</svg>