<?xml version="1.0" encoding="utf-8"?>
<svg version="1.1" xmlns:xlink="http://www.w3.org/1999/xlink" width="166px" height="221px" xmlns="http://www.w3.org/2000/svg">
  <g transform="matrix(1 0 0 1 -28 44 )">
    <path d="M 28.4966887417219 170.815532728339  C 28.4966887417219 170.815532728339  28.4966887417219 -38.5042194092827  28.4966887417219 -38.5042194092827  C 28.4966887417219 -41.2656431584367  30.7352649925679 -43.5042194092827  33.4966887417219 -43.5042194092827  C 33.4966887417219 -43.5042194092827  172.503311258278 -43.5042194092827  172.503311258278 -43.5042194092827  C 175.264735007432 -43.5042194092827  177.503311258278 -41.2656431584367  177.503311258278 -38.5042194092827  C 177.503311258278 -38.5042194092827  177.503311258278 53.342105263158  177.503311258278 53.342105263158  C 177.503311258278 53.342105263158  193.640350877193 66.061403508772  193.640350877193 66.061403508772  C 193.640350877193 66.061403508772  177.503311258278 77.0263157894738  177.503311258278 77.0263157894738  C 177.503311258278 77.0263157894738  177.503311258278 170.815532728339  177.503311258278 170.815532728339  C 177.503311258278 173.576956477493  175.264735007432 175.815532728339  172.503311258278 175.815532728339  C 172.503311258278 175.815532728339  33.4966887417219 175.815532728339  33.4966887417219 175.815532728339  C 30.7352649925679 175.815532728339  28.4966887417219 173.576956477493  28.4966887417219 170.815532728339  Z " fill-rule="nonzero" fill="#000000" stroke="none" fill-opacity="0.8" />
  </g>
</svg>