<?xml version="1.0" encoding="utf-8"?>
<svg version="1.1" xmlns:xlink="http://www.w3.org/1999/xlink" width="13px" height="14px" xmlns="http://www.w3.org/2000/svg">
  <g transform="matrix(1 0 0 1 -250 -108 )">
    <path d="M 0.356966796875 7.82192578125  C 0.128406447905002 7.57578568718831  0 7.2419475088489  0 6.8938515625  L 0 1.3125  C 0 0.5876171875  0.54564453125 0  1.21875 0  L 6.40143359375 0  C 6.72466554393112 0  7.03465813810343 0.138283866974617  7.263216796875 0.38442578125  L 12.643033203125 6.17807421875  C 13.11898046875 6.6906328125  13.11898046875 7.5216640625  12.643033203125 8.03422265625  L 7.460349609375 13.61557421875  C 6.98440234375 14.1281328125  6.21273046875 14.1281328125  5.736783203125 13.61557421875  L 0.356966796875 7.82192578125  Z M 4.0625 3.0625  C 4.0625 2.3376171875  3.51685546875 1.75  2.84375 1.75  C 2.17064453125 1.75  1.625 2.3376171875  1.625 3.0625  C 1.625 3.7873828125  2.17064453125 4.375  2.84375 4.375  C 3.51685546875 4.375  4.0625 3.7873828125  4.0625 3.0625  Z " fill-rule="nonzero" fill="#000000" stroke="none" transform="matrix(1 0 0 1 250 108 )" />
  </g>
</svg>