<?xml version="1.0" encoding="utf-8"?>
<svg version="1.1" xmlns:xlink="http://www.w3.org/1999/xlink" width="19px" height="19px" xmlns="http://www.w3.org/2000/svg">
  <g transform="matrix(1 0 0 1 -1380 -18 )">
    <path d="M 18.8347826086956 18.75775  C 18.81 17.6225  18.564652173913 16.518125  18.1036956521739 15.4755  C 17.6353043478261 14.4115  16.9612173913043 13.45675  16.1062173913043 12.637375  C 15.2512173913043 11.818  14.2549565217391 11.174375  13.1446956521738 10.723125  C 13.1347826086956 10.718375  13.1248695652173 10.716  13.1149565217391 10.71125  C 14.6589130434783 9.64249999999996  15.6626086956521 7.901625  15.6626086956521 5.9375  C 15.6626086956521 2.68374999999999  12.9117391304348 0.0474999999999568  9.51652173913042 0.0474999999999568  C 6.12130434782606 0.0474999999999568  3.37043478260873 2.68374999999999  3.37043478260873 5.9375  C 3.37043478260873 7.901625  4.37413043478257 9.64249999999996  5.91808695652173 10.713625  C 5.90817391304351 10.718375  5.89826086956521 10.72075  5.88834782608699 10.7255  C 4.77808695652173 11.174375  3.7818260869565 11.818  2.92682608695653 12.63975  C 2.07182608695655 13.459125  1.40021739130439 14.413875  0.929347826086957 15.477875  C 0.468391304347832 16.518125  0.223043478260855 17.6225  0.198260869565225 18.75775  C 0.195782608695624 18.864625  0.285000000000023 18.9525  0.39652173913045 18.9525  L 1.88347826086954 18.9525  C 1.99252173913046 18.9525  2.07926086956526 18.869375  2.08173913043477 18.76725  C 2.13130434782612 16.93375  2.8995652173913 15.216625  4.25765217391304 13.915125  C 5.66282608695654 12.5685  7.52895652173916 11.8275  9.51652173913042 11.8275  C 11.5040869565217 11.8275  13.3702173913043 12.5685  14.7753913043478 13.915125  C 16.1334782608695 15.216625  16.9017391304347 16.93375  16.9513043478261 18.76725  C 16.9537826086956 18.87175  17.0405217391304 18.9525  17.1495652173913 18.9525  L 18.6365217391304 18.9525  C 18.7480434782608 18.9525  18.8372608695652 18.864625  18.8347826086956 18.75775  Z M 12.5300869565217 8.82550000000002  C 11.724652173913 9.59737500000004  10.6540434782608 10.0225  9.51652173913042 10.0225  C 8.37900000000002 10.0225  7.30839130434781 9.59737500000004  6.50295652173909 8.82550000000002  C 5.69752173913038 8.053625  5.25391304347827 7.02762499999996  5.25391304347827 5.9375  C 5.25391304347827 4.84737500000004  5.69752173913038 3.821375  6.50295652173909 3.04949999999998  C 7.30839130434781 2.27762499999996  8.37900000000002 1.85250000000003  9.51652173913042 1.85250000000003  C 10.6540434782608 1.85250000000003  11.724652173913 2.27762499999996  12.5300869565217 3.04949999999998  C 13.3355217391305 3.821375  13.7791304347826 4.84737500000004  13.7791304347826 5.9375  C 13.7791304347826 7.02762499999996  13.3355217391305 8.053625  12.5300869565217 8.82550000000002  Z " fill-rule="nonzero" fill="#ffffff" stroke="none" transform="matrix(1 0 0 1 1380 18 )" />
  </g>
</svg>