<?xml version="1.0" encoding="utf-8"?>
<svg version="1.1" xmlns:xlink="http://www.w3.org/1999/xlink" width="691px" height="413px" xmlns="http://www.w3.org/2000/svg">
  <g>
    <path d="M 0.5 403.712562549302  C 0.5 403.712562549302  0.5 0.5  0.5 0.5  C 0.5 0.5  690.5 0.5  690.5 0.5  C 690.5 0.5  690.5 403.712562549302  690.5 403.712562549302  C 690.5 403.712562549302  257.825060287279 403.712562549302  257.825060287279 403.712562549302  C 257.825060287279 403.712562549302  245.783582953745 411.542861917112  245.783582953745 411.542861917112  C 245.783582953745 411.542861917112  233.759607767498 403.712562549302  233.759607767498 403.712562549302  C 233.759607767498 403.712562549302  0.5 403.712562549302  0.5 403.712562549302  Z " fill-rule="nonzero" fill="#ffffff" stroke="none" />
    <path d="M 0 404.212562549302  C 0 404.212562549302  0 0  0 0  C 0 0  691 0  691 0  C 691 0  691 404.212562549302  691 404.212562549302  C 691 404.212562549302  257.973333333333 404.212562549302  257.973333333333 404.212562549302  C 257.973333333333 404.212562549302  245.783384615385 412.139409488089  245.783384615385 412.139409488089  C 245.783384615385 412.139409488089  233.611153846154 404.212562549302  233.611153846154 404.212562549302  C 233.611153846154 404.212562549302  0 404.212562549302  0 404.212562549302  Z M 1 403.212562549302  C 1 403.212562549302  233.908061688844 403.212562549302  233.908061688844 403.212562549302  C 233.908061688844 403.212562549302  245.783781292106 410.946314346134  245.783781292106 410.946314346134  C 245.783781292106 410.946314346134  257.676787241224 403.212562549302  257.676787241224 403.212562549302  C 257.676787241224 403.212562549302  690 403.212562549302  690 403.212562549302  C 690 403.212562549302  690 1  690 1  C 690 1  1 1  1 1  C 1 1  1 403.212562549302  1 403.212562549302  Z " fill-rule="nonzero" fill="#e4e4e4" stroke="none" />
  </g>
</svg>