<?xml version="1.0" encoding="utf-8"?>
<svg version="1.1" xmlns:xlink="http://www.w3.org/1999/xlink" width="140px" height="87px" xmlns="http://www.w3.org/2000/svg">
  <g transform="matrix(1 0 0 1 362 73 )">
    <path d="M -362 -2.99402390381454  C -362 -2.99402390381454  -362 -68  -362 -68  C -362 -70.761423749154  -359.761423749154 -73  -357 -73  C -357 -73  -227 -73  -227 -73  C -224.238576250846 -73  -222 -70.761423749154  -222 -68  C -222 -68  -222 -2.99402390381454  -222 -2.99402390381454  C -222 -0.232600154660574  -224.238576250846 2.00597609618546  -227 2.00597609618546  C -227 2.00597609618546  -322.786561264822 2.00597609618546  -322.786561264822 2.00597609618546  C -322.786561264822 2.00597609618546  -331 13.546875  -331 13.546875  C -331 13.546875  -342.786561264822 2.00597609618546  -342.786561264822 2.00597609618546  C -342.786561264822 2.00597609618546  -357 2.00597609618546  -357 2.00597609618546  C -359.761423749154 2.00597609618546  -362 -0.232600154660574  -362 -2.99402390381454  Z " fill-rule="nonzero" fill="#000000" stroke="none" fill-opacity="0.8" />
  </g>
</svg>